<?xml version="1.0" encoding="UTF-8"?>
<svg  width="32" height="32" viewBox="0 0 700 700" rx="5.5" stroke="#616E8E">
 <path d="m291.67 116.67c-6.4414 0-11.668 5.2266-11.668 11.664v65.191l-120.1-120.09c-4.5508-4.5508-11.945-4.5508-16.496 0-4.5508 4.5508-4.5508 11.945 0 16.496l120.07 120.07h-65.148c-6.4375 0-11.664 5.2266-11.664 11.668 0 6.4375 5.2266 11.664 11.664 11.664h93.332c1.5156 0 3.0352-0.30469 4.457-0.91016 1.2852-0.53516 2.4258-1.3281 3.4297-2.2852 0.09375-0.09375 0.23438-0.11719 0.35156-0.23438 1.0977-1.0742 1.9375-2.3555 2.543-3.8008 0.32813-0.81641 0.375-1.6562 0.51172-2.5195 0.097657-0.63281 0.375-1.2383 0.375-1.9141v-93.332c0-6.4414-5.2266-11.668-11.664-11.668zm10.777 217.25c-1.1914-2.8945-3.4766-5.1797-6.3711-6.3711-0.60547-0.25781-1.2617-0.23438-1.9141-0.39844-0.8125-0.16016-1.6055-0.48438-2.4922-0.48438h-93.332c-6.4414 0-11.668 5.2266-11.668 11.664 0 6.4414 5.2266 11.668 11.664 11.668h65.172l-120.1 120.1c-4.5508 4.5508-4.5508 11.945 0 16.496 2.2852 2.2617 5.2734 3.4062 8.2617 3.4062s5.9727-1.1445 8.2383-3.4062l120.09-120.1v65.172c0 6.4375 5.2266 11.664 11.668 11.664 6.4414 0 11.668-5.2266 11.668-11.668v-93.332c0-0.88672-0.32813-1.6797-0.51172-2.4961-0.14453-0.65234-0.12109-1.3047-0.37891-1.9141zm134.03 16.078h65.195c6.4414 0 11.668-5.2266 11.668-11.668-0.003907-6.4375-5.2305-11.664-11.668-11.664h-93.332c-0.67578 0-1.2852 0.28125-1.9375 0.39844-0.83984 0.14062-1.7031 0.1875-2.5195 0.51172-1.4219 0.58203-2.7305 1.4453-3.8047 2.5195-0.09375 0.09375-0.11719 0.23438-0.23438 0.32812-0.93359 1.0039-1.75 2.1484-2.2852 3.4297-0.58594 1.4688-0.88672 2.9844-0.88672 4.5234v93.289c0 6.4414 5.2266 11.668 11.668 11.668 6.4414 0 11.668-5.2266 11.668-11.668v-65.148l120.07 120.07c2.2812 2.2617 5.2695 3.4062 8.2539 3.4062 2.9883 0 5.9727-1.1445 8.2383-3.4062 4.5508-4.5508 4.5508-11.945 0-16.496zm135.2-350h-443.33c-32.156 0-58.336 26.18-58.336 58.332v443.33c0 32.156 26.18 58.336 58.332 58.336h443.33c32.152 0 58.332-26.18 58.332-58.332v-443.33c0.003906-32.156-26.176-58.336-58.328-58.336zm35 501.67c0 19.297-15.703 35-35 35h-443.33c-19.301 0-35.004-15.703-35.004-35v-443.33c0-19.301 15.703-35.004 35-35.004h443.33c19.301 0 35.004 15.703 35.004 35zm-66.594-428.24-120.07 120.07v-65.172c0-6.4375-5.2266-11.664-11.668-11.664-6.4375 0-11.664 5.2266-11.664 11.664v93.309c0 1.5391 0.30469 3.0781 0.91016 4.5039 0.32812 0.76953 0.88672 1.3516 1.3516 2.0312 0.39844 0.58203 0.62891 1.2148 1.1445 1.7266 0.39844 0.375 0.88672 0.53516 1.3086 0.86328 0.79297 0.60547 1.5625 1.2617 2.4961 1.6328 1.4219 0.63281 2.9375 0.93359 4.4531 0.93359h93.332c6.4414 0 11.668-5.2266 11.668-11.668 0-6.4375-5.2266-11.664-11.664-11.664h-65.172l120.07-120.07c4.5508-4.5508 4.5508-11.945 0-16.496-4.5508-4.5508-11.945-4.5508-16.496 0z" fill="#616E8E"/>
</svg>
